<svg id="Layer_1" enable-background="new 0 0 512 512" height="512" viewBox="0 0 512 512" width="512" xmlns="http://www.w3.org/2000/svg"><g><path d="m184 512c-61.757 0-112-50.243-112-112 0-29.349 11.58-57.516 32-78.375v-241.625c0-44.112 35.888-80 80-80s80 35.888 80 80v241.625c20.421 20.86 32 49.027 32 78.375 0 61.757-50.243 112-112 112zm0-480c-26.467 0-48 21.533-48 48v248.45c0 4.551-1.938 8.887-5.329 11.922-16.95 15.171-26.671 36.905-26.671 59.628 0 44.112 35.888 80 80 80s80-35.888 80-80c0-22.723-9.721-44.456-26.671-59.628-3.391-3.035-5.329-7.371-5.329-11.922v-248.45c0-26.467-21.533-48-48-48z"/><path d="m200 354.752v-266.752c0-8.836-7.164-16-16-16s-16 7.164-16 16v266.752c-18.623 6.605-32 24.389-32 45.248 0 26.467 21.533 48 48 48s48-21.533 48-48c0-20.858-13.377-38.643-32-45.248zm-16 61.248c-8.822 0-16-7.178-16-16s7.178-16 16-16 16 7.178 16 16-7.178 16-16 16z"/><path d="m424 128c-8.837 0-16-7.164-16-16 0-44.112-35.888-80-80-80-8.837 0-16-7.164-16-16s7.163-16 16-16c61.757 0 112 50.243 112 112 0 8.836-7.163 16-16 16z"/><path d="m368 128c-8.837 0-16-7.164-16-16 0-13.233-10.767-24-24-24-8.837 0-16-7.164-16-16s7.163-16 16-16c30.879 0 56 25.122 56 56 0 8.836-7.163 16-16 16z"/><path d="m312.02 144c-8.836 0-16.005-7.164-16.005-16s7.159-16 15.995-16h.01c8.837 0 16 7.164 16 16s-7.164 16-16 16z"/></g></svg>