<svg xmlns="http://www.w3.org/2000/svg" viewBox="0 0 85.18 12"><defs><style>.cls-1{fill:#fff;}.cls-2{fill:#39b54a;}</style></defs><g id="레이어_2" data-name="레이어 2"><g id="레이어_1-2" data-name="레이어 1"><path class="cls-1" d="M0,6.49C0,3.44,1.77,1.56,4.17,1.56A3.5,3.5,0,0,1,6.76,2.72l-.6.7a2.6,2.6,0,0,0-2-.91c-1.86,0-3.08,1.51-3.08,4s1.17,4,3,4A2.9,2.9,0,0,0,6.4,9.38l.6.67a3.64,3.64,0,0,1-2.9,1.37C1.74,11.42,0,9.57,0,6.49Z"/><path class="cls-1" d="M8.17,7.75c0-2.35,1.5-3.7,3.22-3.7s3.24,1.35,3.24,3.7a3.35,3.35,0,0,1-3.24,3.67C9.67,11.42,8.17,10.07,8.17,7.75Zm5.36,0c0-1.67-.88-2.81-2.14-2.81S9.26,6.08,9.26,7.75s.87,2.79,2.13,2.79S13.53,9.42,13.53,7.75Z"/><path class="cls-1" d="M16.54,4.23h.85l.11,1h0A3.35,3.35,0,0,1,19.9,4.05c1.47,0,2.15,1,2.15,2.74v4.46H21V6.92C21,5.57,20.57,5,19.59,5a2.78,2.78,0,0,0-2,1.14v5.14H16.54Z"/><path class="cls-1" d="M24.4,4.23h.86l.1,1h0a3.39,3.39,0,0,1,2.37-1.21c1.47,0,2.14,1,2.14,2.74v4.46H28.85V6.92c0-1.35-.42-1.95-1.39-1.95a2.78,2.78,0,0,0-2,1.14v5.14H24.4Z"/><path class="cls-1" d="M31.72,7.75c0-2.29,1.52-3.7,3.13-3.7s2.77,1.26,2.77,3.29a3,3,0,0,1,0,.63h-4.8a2.43,2.43,0,0,0,2.41,2.6A3.09,3.09,0,0,0,37,10l.39.7a4.11,4.11,0,0,1-2.3.72A3.35,3.35,0,0,1,31.72,7.75Zm5-.54c0-1.51-.68-2.3-1.82-2.3a2.26,2.26,0,0,0-2.11,2.3Z"/><path class="cls-1" d="M38.86,7.75a3.39,3.39,0,0,1,3.34-3.7,2.92,2.92,0,0,1,2,.84l-.56.7a2.06,2.06,0,0,0-1.45-.65C40.92,4.94,40,6.08,40,7.75s.91,2.79,2.26,2.79a2.64,2.64,0,0,0,1.7-.72l.47.7a3.35,3.35,0,0,1-2.26.9C40.27,11.42,38.86,10.07,38.86,7.75Z"/><path class="cls-1" d="M46,9.13v-4H45V4.3l1.1-.07.12-2h.9v2H49V5.1H47.09V9.17c0,.86.26,1.38,1.1,1.38a2.51,2.51,0,0,0,.82-.18l.21.79a4.29,4.29,0,0,1-1.25.26C46.5,11.42,46,10.51,46,9.13Z"/><path class="cls-1" d="M49.89,7.75c0-2.29,1.53-3.7,3.14-3.7S55.8,5.31,55.8,7.34a2.93,2.93,0,0,1-.06.63H51a2.42,2.42,0,0,0,2.4,2.6A3.09,3.09,0,0,0,55.13,10l.39.7a4.08,4.08,0,0,1-2.3.72A3.35,3.35,0,0,1,49.89,7.75Zm5-.54c0-1.51-.68-2.3-1.82-2.3a2.27,2.27,0,0,0-2.11,2.3Z"/><path class="cls-1" d="M57,7.75c0-2.27,1.45-3.7,3.06-3.7a2.93,2.93,0,0,1,2,.83l0-1.22V.9h1.06V11.25h-.88l-.1-.85h0a3.14,3.14,0,0,1-2.17,1C58.17,11.42,57,10.09,57,7.75Zm5,1.77V5.72a2.65,2.65,0,0,0-1.79-.78c-1.2,0-2.12,1.16-2.12,2.8s.73,2.78,2,2.78A2.61,2.61,0,0,0,62.06,9.52Z"/><circle class="cls-2" cx="77.86" cy="11.06" r="0.94"/><path class="cls-2" d="M85,3.12a9.74,9.74,0,0,0-14.29,0,.57.57,0,0,0,0,.8.56.56,0,0,0,.8,0,8.61,8.61,0,0,1,12.62,0,.57.57,0,0,0,.42.19A.54.54,0,0,0,85,3.92.57.57,0,0,0,85,3.12Z"/><path class="cls-2" d="M82.93,5.47a7,7,0,0,0-10.1,0,.57.57,0,0,0,0,.81.56.56,0,0,0,.8,0,5.86,5.86,0,0,1,8.49,0,.52.52,0,0,0,.4.17.55.55,0,0,0,.4-.16A.56.56,0,0,0,82.93,5.47Z"/><path class="cls-2" d="M80.65,7.83a4.12,4.12,0,0,0-2.77-1.19h0a4.14,4.14,0,0,0-2.78,1.19.58.58,0,0,0,.4,1,.56.56,0,0,0,.4-.17,3,3,0,0,1,2-.86h0a3,3,0,0,1,2,.86.58.58,0,0,0,.81,0A.57.57,0,0,0,80.65,7.83Z"/></g></g></svg>