<svg xmlns="http://www.w3.org/2000/svg" viewBox="0 0 101.05 12.21"><defs><style>.cls-1{fill:red;}.cls-2{fill:#fff;}</style></defs><g id="레이어_2" data-name="레이어 2"><g id="레이어_1-2" data-name="레이어 1"><circle class="cls-1" cx="93.73" cy="11.27" r="0.94"/><path class="cls-1" d="M98.69.18l-9.87,9.87a.57.57,0,1,0,.8.8L99.49,1a.58.58,0,0,0,0-.82A.58.58,0,0,0,98.69.18Z"/><path class="cls-1" d="M91.34,9h0l2.15-2.16A4.19,4.19,0,0,0,90.93,8a.58.58,0,0,0,.41,1Z"/><path class="cls-1" d="M94.93,7.06,94,8a3.11,3.11,0,0,1,1.74.85A.57.57,0,1,0,96.53,8,4.28,4.28,0,0,0,94.93,7.06Z"/><path class="cls-1" d="M93.76,4.66a5.68,5.68,0,0,1,1.69.26L96.34,4a6.71,6.71,0,0,0-2.58-.51,7.09,7.09,0,0,0-5.05,2.16.57.57,0,0,0,0,.81.56.56,0,0,0,.8,0A6,6,0,0,1,93.76,4.66Z"/><path class="cls-1" d="M97.41,4.57l-.83.83A6.67,6.67,0,0,1,98,6.48a.54.54,0,0,0,.4.17.55.55,0,0,0,.4-.16.57.57,0,0,0,0-.81A7.76,7.76,0,0,0,97.41,4.57Z"/><path class="cls-1" d="M100.9,3.33a10.77,10.77,0,0,0-1.17-1.08l-.81.82a9.22,9.22,0,0,1,1.15,1,.55.55,0,0,0,.41.18.58.58,0,0,0,.39-.15A.57.57,0,0,0,100.9,3.33Z"/><path class="cls-1" d="M97.94,2.43l.83-.83a9.57,9.57,0,0,0-5-1.39,9.69,9.69,0,0,0-7.15,3.12.57.57,0,0,0,.84.77A8.62,8.62,0,0,1,97.94,2.43Z"/><path class="cls-2" d="M0,1.94H2.34c2.92,0,4.45,1.73,4.45,4.72s-1.53,4.8-4.41,4.8H0Zm2.25,8.64c2.31,0,3.43-1.49,3.43-3.92S4.56,2.83,2.25,2.83H1.08v7.75Z"/><path class="cls-2" d="M8.55,2.22a.71.71,0,0,1,.77-.73.72.72,0,0,1,.77.73.73.73,0,0,1-.77.71A.72.72,0,0,1,8.55,2.22Zm.24,2.22H9.84v7H8.79Z"/><path class="cls-2" d="M11.47,10.67,12,10a3.12,3.12,0,0,0,2.12.85c1,0,1.45-.52,1.45-1.17s-.84-1.1-1.63-1.38c-1-.37-2.12-.83-2.12-2s.87-2,2.38-2A3.5,3.5,0,0,1,16.33,5l-.51.69A2.66,2.66,0,0,0,14.2,5.1c-.94,0-1.37.5-1.37,1.07s.78,1,1.59,1.26c1,.4,2.17.8,2.17,2.14,0,1.12-.89,2.06-2.51,2.06A4.24,4.24,0,0,1,11.47,10.67Z"/><path class="cls-2" d="M17.76,8a3.39,3.39,0,0,1,3.34-3.7,2.92,2.92,0,0,1,2,.84l-.56.7a2.06,2.06,0,0,0-1.45-.65c-1.32,0-2.29,1.13-2.29,2.81s.91,2.78,2.26,2.78a2.63,2.63,0,0,0,1.7-.71l.47.7a3.35,3.35,0,0,1-2.26.9C19.17,11.63,17.76,10.28,17.76,8Z"/><path class="cls-2" d="M24,8c0-2.35,1.5-3.7,3.22-3.7S30.5,5.61,30.5,8,29,11.63,27.26,11.63,24,10.28,24,8Zm5.37,0c0-1.68-.89-2.81-2.15-2.81S25.13,6.28,25.13,8s.87,2.78,2.13,2.78S29.41,9.63,29.41,8Z"/><path class="cls-2" d="M32.41,4.44h.86l.1,1h0a3.38,3.38,0,0,1,2.37-1.21c1.47,0,2.14,1,2.14,2.74v4.46H36.86V7.13c0-1.35-.42-1.95-1.4-1.95a2.78,2.78,0,0,0-2,1.14v5.14H32.41Z"/><path class="cls-2" d="M40.27,4.44h.86l.11,1h0a3.35,3.35,0,0,1,2.36-1.21c1.47,0,2.15,1,2.15,2.74v4.46H44.72V7.13c0-1.35-.42-1.95-1.39-1.95a2.76,2.76,0,0,0-2,1.14v5.14H40.27Z"/><path class="cls-2" d="M47.59,8c0-2.29,1.52-3.7,3.14-3.7s2.76,1.26,2.76,3.29a3,3,0,0,1-.05.63H48.65a2.42,2.42,0,0,0,2.4,2.6,3.09,3.09,0,0,0,1.78-.57l.39.7a4.08,4.08,0,0,1-2.3.72A3.35,3.35,0,0,1,47.59,8Zm5-.54c0-1.51-.68-2.31-1.82-2.31a2.28,2.28,0,0,0-2.11,2.31Z"/><path class="cls-2" d="M54.73,8a3.39,3.39,0,0,1,3.34-3.7,2.92,2.92,0,0,1,2,.84l-.55.7a2.1,2.1,0,0,0-1.46-.65c-1.31,0-2.29,1.13-2.29,2.81s.91,2.78,2.26,2.78A2.65,2.65,0,0,0,59.79,10l.46.7a3.35,3.35,0,0,1-2.26.9C56.15,11.63,54.73,10.28,54.73,8Z"/><path class="cls-2" d="M61.91,9.34v-4H60.84V4.5l1.1-.06.12-2H63v2H64.9v.87H63V9.38c0,.86.26,1.38,1.1,1.38a2.51,2.51,0,0,0,.82-.18l.21.79a4.29,4.29,0,0,1-1.25.26C62.37,11.63,61.91,10.72,61.91,9.34Z"/><path class="cls-2" d="M65.77,8c0-2.29,1.52-3.7,3.13-3.7s2.77,1.26,2.77,3.29a3,3,0,0,1,0,.63h-4.8a2.42,2.42,0,0,0,2.4,2.6A3.13,3.13,0,0,0,71,10.21l.39.7a4.14,4.14,0,0,1-2.31.72A3.34,3.34,0,0,1,65.77,8Zm5-.54c0-1.51-.67-2.31-1.82-2.31a2.26,2.26,0,0,0-2.1,2.31Z"/><path class="cls-2" d="M72.92,8c0-2.27,1.44-3.7,3-3.7a3,3,0,0,1,2,.83l0-1.22V1.11h1V11.46h-.87L78,10.61h0a3.16,3.16,0,0,1-2.17,1C74.05,11.63,72.92,10.3,72.92,8Zm5,1.77V5.93a2.63,2.63,0,0,0-1.8-.78C75,5.15,74,6.31,74,8s.73,2.78,2,2.78A2.64,2.64,0,0,0,77.94,9.73Z"/></g></g></svg>